<svg width="33" height="33" viewBox="0 0 33 33" fill="none" xmlns="http://www.w3.org/2000/svg">
<path d="M32.4032 16.0854C32.4032 7.20544 25.1897 0 16.3017 0C7.41362 0 0.200134 7.20544 0.200134 16.0854C0.200134 20.9763 2.42215 25.3841 5.90008 28.3427C5.93228 28.3749 5.96448 28.3749 5.96448 28.4071C6.25431 28.6325 6.54414 28.858 6.86617 29.0834C7.02718 29.18 7.156 29.3068 7.31701 29.4356C9.97793 31.2397 13.119 32.2038 16.3339 32.2031C19.5487 32.2038 22.6898 31.2397 25.3507 29.4356C25.5117 29.339 25.6406 29.2122 25.8016 29.1136C26.0914 28.8902 26.4134 28.6648 26.7033 28.4393C26.7355 28.4071 26.7677 28.4071 26.7677 28.3749C30.1812 25.3821 32.4032 20.9763 32.4032 16.0854ZM16.3017 30.1763C13.2746 30.1763 10.5051 29.2102 8.2187 27.6021C8.2509 27.3444 8.31531 27.0888 8.37971 26.8312C8.5716 26.133 8.85303 25.4626 9.21699 24.8366C9.57123 24.2248 9.98987 23.6773 10.5051 23.1943C10.9882 22.7112 11.5678 22.2624 12.1475 21.9081C12.7593 21.5539 13.4034 21.2963 14.1119 21.1031C14.8258 20.9106 15.5622 20.8138 16.3017 20.8153C18.4968 20.7997 20.6113 21.6417 22.1948 23.1621C22.9355 23.9027 23.5152 24.7722 23.9338 25.7685C24.1592 26.3481 24.3202 26.96 24.4168 27.6021C22.0402 29.2729 19.2069 30.1717 16.3017 30.1763ZM11.3746 15.2824C11.0909 14.6327 10.9482 13.9302 10.956 13.2214C10.956 12.5149 11.0848 11.8064 11.3746 11.1624C11.6644 10.5183 12.0509 9.94068 12.5339 9.45764C13.017 8.97459 13.5966 8.59017 14.2407 8.30034C14.8847 8.01051 15.5932 7.8817 16.3017 7.8817C17.0423 7.8817 17.7186 8.01051 18.3627 8.30034C19.0067 8.59017 19.5864 8.9766 20.0694 9.45764C20.5525 9.94068 20.9389 10.5203 21.2287 11.1624C21.5186 11.8064 21.6474 12.5149 21.6474 13.2214C21.6474 13.962 21.5186 14.6383 21.2287 15.2804C20.949 15.9149 20.5562 16.4932 20.0694 16.9871C19.5754 17.4732 18.997 17.8653 18.3627 18.1444C17.0319 18.6913 15.5392 18.6913 14.2085 18.1444C13.5741 17.8653 12.9958 17.4732 12.5017 16.9871C12.0143 16.5004 11.6308 15.9198 11.3746 15.2804V15.2824ZM26.3168 25.9617C26.3168 25.8973 26.2846 25.8651 26.2846 25.8007C25.9679 24.7932 25.5011 23.8392 24.8999 22.9708C24.2981 22.0961 23.5586 21.3246 22.7101 20.6864C22.062 20.1989 21.3596 19.7883 20.6169 19.4627C20.9548 19.2398 21.2678 18.9814 21.5508 18.6919C22.0309 18.2179 22.4525 17.6881 22.8067 17.1139C23.5199 15.9421 23.8882 14.593 23.8694 13.2214C23.8793 12.206 23.6821 11.1993 23.2897 10.2627C22.9023 9.3603 22.3447 8.54097 21.6474 7.8495C20.9511 7.16524 20.1316 6.61892 19.2321 6.23934C18.294 5.84766 17.286 5.65112 16.2695 5.6617C15.2528 5.65176 14.2447 5.84898 13.3068 6.24136C12.3996 6.62012 11.5781 7.17803 10.8916 7.8817C10.2073 8.57726 9.66098 9.39609 9.2814 10.2949C8.88902 11.2315 8.69178 12.2382 8.70174 13.2536C8.70174 13.962 8.79835 14.6383 8.99157 15.2804C9.18479 15.9566 9.44241 16.5685 9.79665 17.1461C10.1187 17.7258 10.5695 18.241 11.0526 18.7241C11.3424 19.0139 11.6644 19.2695 12.0187 19.4949C11.2736 19.8292 10.571 20.2508 9.92546 20.7509C9.08818 21.3949 8.34751 22.1658 7.73565 23.0031C7.12834 23.8678 6.66104 24.8228 6.35092 25.8329C6.31872 25.8973 6.31872 25.9617 6.31872 25.9939C3.77467 23.4197 2.19672 19.9458 2.19672 16.0854C2.19672 8.33254 8.54073 1.99458 16.3017 1.99458C24.0626 1.99458 30.4066 8.33254 30.4066 16.0854C30.4024 19.7887 28.9319 23.3396 26.3168 25.9617Z" fill="white"/>
</svg>
