<svg width="37" height="36" viewBox="0 0 37 36" fill="none" xmlns="http://www.w3.org/2000/svg">
<path d="M6.77045 9.15625H31.4416C31.9415 9.15627 32.4358 9.26104 32.8927 9.4638C33.3497 9.66656 33.759 9.96282 34.0945 10.3335C34.4299 10.7041 34.6839 11.141 34.8402 11.6158C34.9965 12.0907 35.0515 12.593 35.0018 13.0904L33.9284 23.8247C33.8401 24.7077 33.4269 25.5263 32.769 26.1217C32.1111 26.7171 31.2554 27.0468 30.3681 27.0468H13.2826C12.4551 27.0472 11.6531 26.7607 11.0131 26.2361C10.3731 25.7116 9.93467 24.9815 9.77249 24.17L6.77045 9.15625Z" stroke="white" stroke-width="2.2" stroke-linejoin="round"/>
<path d="M6.77043 9.15623L5.3213 3.35432C5.22438 2.96744 5.00097 2.62404 4.68655 2.37866C4.37214 2.13329 3.98474 2.00001 3.58591 2H1.40326M12.1376 34.2031H15.7157M26.4501 34.2031H30.0282" stroke="white" stroke-width="2.2" stroke-linecap="round" stroke-linejoin="round"/>
</svg>
