<svg width="36" height="35" viewBox="0 0 36 35" fill="none" xmlns="http://www.w3.org/2000/svg">
<path d="M6.77045 8.15625H31.4416C31.9415 8.15627 32.4358 8.26104 32.8927 8.4638C33.3497 8.66656 33.759 8.96282 34.0945 9.33348C34.4299 9.70413 34.6839 10.141 34.8402 10.6158C34.9965 11.0907 35.0515 11.593 35.0018 12.0904L33.9284 22.8247C33.8401 23.7077 33.4269 24.5263 32.769 25.1217C32.1111 25.7171 31.2554 26.0468 30.3681 26.0468H13.2826C12.4551 26.0472 11.6531 25.7607 11.0131 25.2361C10.3731 24.7116 9.93467 23.9815 9.77249 23.17L6.77045 8.15625Z" stroke="white" stroke-width="1.78906" stroke-linejoin="round"/>
<path d="M6.77043 8.15623L5.3213 2.35432C5.22438 1.96744 5.00097 1.62404 4.68655 1.37866C4.37214 1.13329 3.98474 1.00001 3.58591 1H1.40326M12.1376 33.2031H15.7157M26.4501 33.2031H30.0282" stroke="white" stroke-width="1.78906" stroke-linecap="round" stroke-linejoin="round"/>
</svg>
