<svg width="102" height="59" viewBox="0 0 102 59" fill="none" xmlns="http://www.w3.org/2000/svg">
<path d="M2.86804 30.2925V7.10848H14.1C16.404 7.10848 18.108 7.64848 19.212 8.72848C20.316 9.80848 20.868 11.3325 20.868 13.3005C20.868 14.5485 20.616 15.6045 20.112 16.4685C19.608 17.3085 18.936 17.9445 18.096 18.3765C19.224 18.6885 20.112 19.2525 20.76 20.0685C21.432 20.8605 21.768 22.0365 21.768 23.5965C21.768 25.8525 21.156 27.5325 19.932 28.6365C18.732 29.7405 16.956 30.2925 14.604 30.2925H2.86804ZM6.79204 17.0085H13.56C14.88 17.0085 15.816 16.7085 16.368 16.1085C16.944 15.4845 17.232 14.6565 17.232 13.6245C17.232 12.4245 16.944 11.5365 16.368 10.9605C15.792 10.3605 14.712 10.0605 13.128 10.0605H6.79204V17.0085ZM6.79204 27.4125H13.776C15.168 27.4125 16.188 27.1245 16.836 26.5485C17.484 25.9485 17.808 24.9165 17.808 23.4525C17.808 22.2525 17.484 21.3645 16.836 20.7885C16.212 20.1885 15.06 19.8885 13.38 19.8885H6.79204V27.4125ZM34.219 30.6525C31.243 30.6525 28.939 29.9205 27.307 28.4565C25.675 26.9925 24.859 24.7485 24.859 21.7245C24.859 18.9885 25.555 16.8285 26.947 15.2445C28.339 13.6605 30.451 12.8685 33.283 12.8685C35.875 12.8685 37.819 13.5525 39.115 14.9205C40.435 16.2645 41.095 18.0045 41.095 20.1405V23.3085H28.603C28.795 24.9645 29.395 26.1045 30.403 26.7285C31.411 27.3525 32.947 27.6645 35.011 27.6645C35.875 27.6645 36.763 27.5805 37.675 27.4125C38.587 27.2445 39.379 27.0285 40.051 26.7645V29.6445C39.283 29.9805 38.395 30.2325 37.387 30.4005C36.403 30.5685 35.347 30.6525 34.219 30.6525ZM28.603 20.7525H37.639V19.5645C37.639 18.3885 37.315 17.4765 36.667 16.8285C36.019 16.1565 34.927 15.8205 33.391 15.8205C31.567 15.8205 30.307 16.2165 29.611 17.0085C28.939 17.8005 28.603 19.0485 28.603 20.7525ZM51.4309 30.6525C49.6069 30.6525 48.2389 30.1725 47.3269 29.2125C46.4389 28.2285 45.9949 26.8965 45.9949 25.2165V16.2885H43.4749V13.2285H45.9949V9.30448L49.8829 8.11648V13.2285H54.4189L54.1669 16.2885H49.8829V25.0005C49.8829 25.9845 50.1109 26.6805 50.5669 27.0885C51.0229 27.4725 51.7669 27.6645 52.7989 27.6645C53.4469 27.6645 54.1309 27.5445 54.8509 27.3045V30.0765C53.9149 30.4605 52.7749 30.6525 51.4309 30.6525ZM64.3684 30.6525C62.5444 30.6525 61.1764 30.1725 60.2644 29.2125C59.3764 28.2285 58.9324 26.8965 58.9324 25.2165V16.2885H56.4124V13.2285H58.9324V9.30448L62.8204 8.11648V13.2285H67.3564L67.1044 16.2885H62.8204V25.0005C62.8204 25.9845 63.0484 26.6805 63.5044 27.0885C63.9604 27.4725 64.7044 27.6645 65.7364 27.6645C66.3844 27.6645 67.0684 27.5445 67.7884 27.3045V30.0765C66.8524 30.4605 65.7124 30.6525 64.3684 30.6525ZM79.4299 30.6525C76.4539 30.6525 74.1499 29.9205 72.5179 28.4565C70.8859 26.9925 70.0699 24.7485 70.0699 21.7245C70.0699 18.9885 70.7659 16.8285 72.1579 15.2445C73.5499 13.6605 75.6619 12.8685 78.4939 12.8685C81.0859 12.8685 83.0299 13.5525 84.3259 14.9205C85.6459 16.2645 86.3059 18.0045 86.3059 20.1405V23.3085H73.8139C74.0059 24.9645 74.6059 26.1045 75.6139 26.7285C76.6219 27.3525 78.1579 27.6645 80.2219 27.6645C81.0859 27.6645 81.9739 27.5805 82.8859 27.4125C83.7979 27.2445 84.5899 27.0285 85.2619 26.7645V29.6445C84.4939 29.9805 83.6059 30.2325 82.5979 30.4005C81.6139 30.5685 80.5579 30.6525 79.4299 30.6525ZM73.8139 20.7525H82.8499V19.5645C82.8499 18.3885 82.5259 17.4765 81.8779 16.8285C81.2299 16.1565 80.1379 15.8205 78.6019 15.8205C76.7779 15.8205 75.5179 16.2165 74.8219 17.0085C74.1499 17.8005 73.8139 19.0485 73.8139 20.7525ZM90.1258 30.2925V13.2285H93.7258L93.9418 15.2085C94.7578 14.6805 95.7298 14.2005 96.8578 13.7685C97.9858 13.3365 99.1018 13.0365 100.206 12.8685V15.8565C99.5339 15.9765 98.8018 16.1565 98.0098 16.3965C97.2418 16.6125 96.5098 16.8645 95.8138 17.1525C95.1178 17.4165 94.5298 17.6925 94.0498 17.9805V30.2925H90.1258ZM6.79204 53.5325C4.79204 53.5325 3.18404 53.2765 1.96804 52.7645V50.4605C2.65604 50.7165 3.39204 50.9245 4.17604 51.0845C4.97604 51.2445 5.76804 51.3245 6.55204 51.3245C7.78404 51.3245 8.70404 51.1805 9.31204 50.8925C9.93604 50.6045 10.248 50.0285 10.248 49.1645C10.248 48.6365 10.12 48.2125 9.86404 47.8925C9.60804 47.5725 9.18404 47.3005 8.59204 47.0765C8.00004 46.8365 7.18404 46.5885 6.14404 46.3325C4.48004 45.9005 3.31204 45.3565 2.64004 44.7005C1.96804 44.0285 1.63204 43.1085 1.63204 41.9405C1.63204 40.5805 2.12804 39.5165 3.12004 38.7485C4.11204 37.9805 5.59204 37.5965 7.56004 37.5965C8.45604 37.5965 9.29604 37.6605 10.08 37.7885C10.88 37.9165 11.504 38.0605 11.952 38.2205V40.5245C10.736 40.0605 9.39204 39.8285 7.92004 39.8285C6.76804 39.8285 5.87204 39.9805 5.23204 40.2845C4.59204 40.5885 4.27204 41.1405 4.27204 41.9405C4.27204 42.4045 4.38404 42.7805 4.60804 43.0685C4.83204 43.3565 5.21604 43.6045 5.76004 43.8125C6.32004 44.0205 7.08804 44.2525 8.06404 44.5085C9.32804 44.8285 10.304 45.2125 10.992 45.6605C11.696 46.0925 12.184 46.6045 12.456 47.1965C12.744 47.7725 12.888 48.4285 12.888 49.1645C12.888 50.5245 12.384 51.5965 11.376 52.3805C10.368 53.1485 8.84004 53.5325 6.79204 53.5325ZM14.5845 53.2925V37.1165H17.2005V46.4765L21.9765 41.9165H24.9765L20.3445 46.5005L25.2405 53.2925H22.4805L18.7125 47.8925L17.2005 49.3325V53.2925H14.5845ZM26.2827 39.5405V37.3805H29.1387V39.5405H26.2827ZM26.4987 53.2925V43.9085H24.7707L25.0107 41.9165H29.1147V53.2925H26.4987ZM31.3264 53.2925V41.9165H33.7264L33.8464 43.1165C34.3584 42.7165 34.9664 42.3805 35.6704 42.1085C36.3904 41.8205 37.1824 41.6765 38.0464 41.6765C39.5184 41.6765 40.5904 42.0205 41.2624 42.7085C41.9344 43.3965 42.2704 44.4685 42.2704 45.9245V53.2925H39.6784V46.0445C39.6784 45.1645 39.4944 44.5485 39.1264 44.1965C38.7744 43.8445 38.1024 43.6685 37.1104 43.6685C36.5184 43.6685 35.9344 43.7885 35.3584 44.0285C34.7984 44.2685 34.3264 44.5805 33.9424 44.9645V53.2925H31.3264ZM53.7327 53.5325C51.7327 53.5325 50.1247 53.2765 48.9087 52.7645V50.4605C49.5967 50.7165 50.3327 50.9245 51.1167 51.0845C51.9167 51.2445 52.7087 51.3245 53.4927 51.3245C54.7247 51.3245 55.6447 51.1805 56.2527 50.8925C56.8767 50.6045 57.1887 50.0285 57.1887 49.1645C57.1887 48.6365 57.0607 48.2125 56.8047 47.8925C56.5487 47.5725 56.1247 47.3005 55.5327 47.0765C54.9407 46.8365 54.1247 46.5885 53.0847 46.3325C51.4207 45.9005 50.2527 45.3565 49.5807 44.7005C48.9087 44.0285 48.5727 43.1085 48.5727 41.9405C48.5727 40.5805 49.0687 39.5165 50.0607 38.7485C51.0527 37.9805 52.5327 37.5965 54.5007 37.5965C55.3967 37.5965 56.2367 37.6605 57.0207 37.7885C57.8207 37.9165 58.4447 38.0605 58.8927 38.2205V40.5245C57.6767 40.0605 56.3327 39.8285 54.8607 39.8285C53.7087 39.8285 52.8127 39.9805 52.1727 40.2845C51.5327 40.5885 51.2127 41.1405 51.2127 41.9405C51.2127 42.4045 51.3247 42.7805 51.5487 43.0685C51.7727 43.3565 52.1567 43.6045 52.7007 43.8125C53.2607 44.0205 54.0287 44.2525 55.0047 44.5085C56.2687 44.8285 57.2447 45.2125 57.9327 45.6605C58.6367 46.0925 59.1247 46.6045 59.3967 47.1965C59.6847 47.7725 59.8287 48.4285 59.8287 49.1645C59.8287 50.5245 59.3247 51.5965 58.3167 52.3805C57.3087 53.1485 55.7807 53.5325 53.7327 53.5325ZM61.5252 53.2925V37.1165H64.1412V43.0205C64.6372 42.6205 65.2292 42.3005 65.9172 42.0605C66.6052 41.8045 67.3812 41.6765 68.2452 41.6765C69.6852 41.6765 70.7492 42.0205 71.4372 42.7085C72.1252 43.3965 72.4692 44.4685 72.4692 45.9245V53.2925H69.8772V46.0445C69.8772 45.1645 69.6852 44.5485 69.3012 44.1965C68.9332 43.8445 68.2852 43.6685 67.3572 43.6685C66.7812 43.6685 66.1972 43.7965 65.6052 44.0525C65.0132 44.2925 64.5252 44.6125 64.1412 45.0125V53.2925H61.5252ZM79.7738 53.5325C77.7258 53.5325 76.2218 53.0205 75.2618 51.9965C74.3178 50.9725 73.8458 49.5085 73.8458 47.6045C73.8458 45.7005 74.3258 44.2365 75.2858 43.2125C76.2458 42.1885 77.7418 41.6765 79.7738 41.6765C81.8218 41.6765 83.3258 42.1885 84.2858 43.2125C85.2458 44.2365 85.7258 45.7005 85.7258 47.6045C85.7258 49.5085 85.2458 50.9725 84.2858 51.9965C83.3418 53.0205 81.8378 53.5325 79.7738 53.5325ZM79.7738 51.3245C80.9738 51.3245 81.8218 51.0365 82.3178 50.4605C82.8298 49.8685 83.0858 48.9165 83.0858 47.6045C83.0858 46.2925 82.8298 45.3485 82.3178 44.7725C81.8218 44.1965 80.9738 43.9085 79.7738 43.9085C78.5898 43.9085 77.7418 44.1965 77.2298 44.7725C76.7338 45.3485 76.4858 46.2925 76.4858 47.6045C76.4858 48.9165 76.7338 49.8685 77.2298 50.4605C77.7418 51.0365 78.5898 51.3245 79.7738 51.3245ZM87.4311 58.4765V41.9165H89.6871L89.8311 43.0445C90.3431 42.5805 90.9031 42.2365 91.5111 42.0125C92.1191 41.7885 92.8391 41.6765 93.6711 41.6765C95.3031 41.6765 96.5751 42.1245 97.4871 43.0205C98.3991 43.9005 98.8551 45.3645 98.8551 47.4125C98.8551 49.4605 98.3831 50.9965 97.4391 52.0205C96.4951 53.0285 95.2071 53.5325 93.5751 53.5325C92.1991 53.5325 91.0231 53.2125 90.0471 52.5725V58.4765H87.4311ZM92.9031 51.5645C95.1111 51.5645 96.2151 50.1725 96.2151 47.3885C96.2151 46.0445 95.9671 45.0925 95.4711 44.5325C94.9751 43.9565 94.1431 43.6685 92.9751 43.6685C91.8071 43.6685 90.8311 44.0685 90.0471 44.8685V50.5565C90.4151 50.8605 90.8231 51.1085 91.2711 51.3005C91.7351 51.4765 92.2791 51.5645 92.9031 51.5645Z" fill="white"/>
</svg>
