<svg width="31" height="31" viewBox="0 0 31 31" fill="none" xmlns="http://www.w3.org/2000/svg">
<path fill-rule="evenodd" clip-rule="evenodd" d="M22.2877 19.8477L30.3573 27.9175C30.6409 28.2014 30.8002 28.5863 30.8 28.9875C30.7999 29.3888 30.6404 29.7736 30.3565 30.0572C30.0727 30.3409 29.6878 30.5001 29.2866 30.5C28.8853 30.4999 28.5005 30.3403 28.2169 30.0565L20.1473 21.9867C17.7349 23.8551 14.7014 24.7344 11.6638 24.4456C8.62626 24.1568 5.81278 22.7217 3.79575 20.4321C1.77872 18.1425 0.709655 15.1705 0.806043 12.1207C0.902431 9.07085 2.15703 6.17228 4.31461 4.01465C6.47219 1.85701 9.37069 0.602384 12.4204 0.505994C15.4702 0.409604 18.4421 1.47869 20.7317 3.49577C23.0212 5.51286 24.4563 8.32641 24.7451 11.3641C25.0339 14.4017 24.1546 17.4353 22.2862 19.8477H22.2877ZM12.8006 21.4992C15.1874 21.4992 17.4765 20.551 19.1643 18.8632C20.852 17.1754 21.8002 14.8863 21.8002 12.4994C21.8002 10.1125 20.852 7.82332 19.1643 6.13553C17.4765 4.44774 15.1874 3.49955 12.8006 3.49955C10.4138 3.49955 8.12469 4.44774 6.43694 6.13553C4.74919 7.82332 3.80103 10.1125 3.80103 12.4994C3.80103 14.8863 4.74919 17.1754 6.43694 18.8632C8.12469 20.551 10.4138 21.4992 12.8006 21.4992Z" fill="black" fill-opacity="0.8"/>
</svg>
