<svg width="31" height="31" viewBox="0 0 31 31" fill="none" xmlns="http://www.w3.org/2000/svg">
<path fill-rule="evenodd" clip-rule="evenodd" d="M21.5877 19.8477L29.6573 27.9175C29.9409 28.2014 30.1002 28.5863 30.1 28.9875C30.0999 29.3888 29.9404 29.7736 29.6565 30.0572C29.3727 30.3409 28.9878 30.5001 28.5865 30.5C28.1853 30.4999 27.8005 30.3403 27.5169 30.0565L19.4473 21.9867C17.0349 23.8551 14.0014 24.7344 10.9638 24.4456C7.92625 24.1568 5.11277 22.7217 3.09574 20.4321C1.07871 18.1425 0.00964323 15.1705 0.106031 12.1207C0.202418 9.07085 1.45702 6.17228 3.6146 4.01465C5.77218 1.85701 8.67067 0.602384 11.7204 0.505994C14.7702 0.409604 17.7421 1.47869 20.0316 3.49577C22.3212 5.51286 23.7563 8.32641 24.0451 11.3641C24.3338 14.4017 23.4546 17.4353 21.5862 19.8477H21.5877ZM12.1006 21.4992C14.4874 21.4992 16.7765 20.551 18.4643 18.8632C20.152 17.1754 21.1002 14.8863 21.1002 12.4994C21.1002 10.1125 20.152 7.82332 18.4643 6.13553C16.7765 4.44774 14.4874 3.49955 12.1006 3.49955C9.71376 3.49955 7.42468 4.44774 5.73693 6.13553C4.04918 7.82332 3.10101 10.1125 3.10101 12.4994C3.10101 14.8863 4.04918 17.1754 5.73693 18.8632C7.42468 20.551 9.71376 21.4992 12.1006 21.4992Z" fill="white"/>
</svg>
