<svg width="27" height="27" viewBox="0 0 27 27" fill="none" xmlns="http://www.w3.org/2000/svg">
<path d="M13.1654 0C9.59267 0 9.1434 0.0164568 7.73963 0.0789926C6.33587 0.14482 5.37973 0.365341 4.54208 0.691185C3.66344 1.02167 2.86758 1.54007 2.21015 2.21015C1.54048 2.86792 1.02214 3.66368 0.691185 4.54208C0.365341 5.37808 0.143174 6.33587 0.0789926 7.73469C0.0164568 9.14175 0 9.58937 0 13.1671C0 16.7415 0.0164568 17.1891 0.0789926 18.5929C0.14482 19.995 0.365341 20.9511 0.691185 21.7888C1.02855 22.6544 1.47782 23.3884 2.21015 24.1207C2.94083 24.8531 3.6748 25.304 4.54043 25.6397C5.37973 25.9655 6.33422 26.1877 7.73634 26.2519C9.14175 26.3144 9.58937 26.3309 13.1654 26.3309C16.7415 26.3309 17.1875 26.3144 18.5929 26.2519C19.9934 26.1861 20.9528 25.9655 21.7904 25.6397C22.6685 25.309 23.4638 24.7906 24.1207 24.1207C24.8531 23.3884 25.3023 22.6544 25.6397 21.7888C25.9639 20.9511 26.1861 19.995 26.2519 18.5929C26.3144 17.1891 26.3309 16.7415 26.3309 13.1654C26.3309 9.58937 26.3144 9.14175 26.2519 7.73634C26.1861 6.33587 25.9639 5.37808 25.6397 4.54208C25.3088 3.66365 24.7904 2.86789 24.1207 2.21015C23.4635 1.53982 22.6676 1.02138 21.7888 0.691185C20.9495 0.365341 19.9917 0.143174 18.5912 0.0789926C17.1858 0.0164568 16.7399 0 13.1621 0H13.1671H13.1654ZM11.9855 2.37307H13.1671C16.6823 2.37307 17.0986 2.38459 18.4859 2.44877C19.7695 2.50637 20.4673 2.72195 20.9314 2.90133C21.5452 3.13996 21.9846 3.4263 22.4454 3.88709C22.9062 4.34789 23.1909 4.78564 23.4295 5.40112C23.6106 5.86356 23.8245 6.56132 23.8821 7.84495C23.9463 9.23226 23.9594 9.64862 23.9594 13.1621C23.9594 16.6757 23.9463 17.0937 23.8821 18.481C23.8245 19.7646 23.6089 20.4607 23.4295 20.9248C23.2185 21.4965 22.8816 22.0133 22.4438 22.4372C21.983 22.898 21.5452 23.1827 20.9298 23.4213C20.469 23.6023 19.7712 23.8163 18.4859 23.8755C17.0986 23.9381 16.6823 23.9529 13.1671 23.9529C9.65191 23.9529 9.23391 23.9381 7.8466 23.8755C6.56297 23.8163 5.86685 23.6023 5.40277 23.4213C4.83089 23.2105 4.31353 22.8743 3.88874 22.4372C3.45058 22.0127 3.11317 21.4953 2.90133 20.9232C2.72195 20.4607 2.50637 19.763 2.44877 18.4793C2.38624 17.092 2.37307 16.6757 2.37307 13.1589C2.37307 9.64368 2.38624 9.22897 2.44877 7.84166C2.50802 6.55803 2.72195 5.86026 2.90298 5.39618C3.1416 4.78234 3.42795 4.34295 3.88874 3.88216C4.34953 3.42137 4.78728 3.13667 5.40277 2.89804C5.86685 2.71702 6.56297 2.50308 7.8466 2.44383C9.06111 2.38788 9.53177 2.37142 11.9855 2.36978V2.37307ZM20.1941 4.55853C19.9867 4.55853 19.7812 4.5994 19.5895 4.67879C19.3979 4.75819 19.2237 4.87456 19.077 5.02126C18.9303 5.16796 18.8139 5.34212 18.7345 5.5338C18.6551 5.72548 18.6143 5.93092 18.6143 6.13838C18.6143 6.34585 18.6551 6.55129 18.7345 6.74297C18.8139 6.93464 18.9303 7.10881 19.077 7.25551C19.2237 7.40221 19.3979 7.51858 19.5895 7.59798C19.7812 7.67737 19.9867 7.71824 20.1941 7.71824C20.6131 7.71824 21.015 7.55179 21.3113 7.25551C21.6075 6.95923 21.774 6.55739 21.774 6.13838C21.774 5.71938 21.6075 5.31754 21.3113 5.02126C21.015 4.72498 20.6131 4.55853 20.1941 4.55853ZM13.1671 6.40498C12.2703 6.39099 11.3797 6.55554 10.5471 6.88905C9.71455 7.22255 8.95663 7.71835 8.31751 8.34758C7.67839 8.97681 7.17082 9.7269 6.82437 10.5542C6.47792 11.3814 6.2995 12.2694 6.2995 13.1663C6.2995 14.0631 6.47792 14.9511 6.82437 15.7783C7.17082 16.6056 7.67839 17.3557 8.31751 17.9849C8.95663 18.6142 9.71455 19.11 10.5471 19.4435C11.3797 19.777 12.2703 19.9415 13.1671 19.9275C14.942 19.8998 16.6349 19.1753 17.8803 17.9103C19.1257 16.6454 19.8237 14.9414 19.8237 13.1663C19.8237 11.3911 19.1257 9.68715 17.8803 8.42218C16.6349 7.1572 14.942 6.43268 13.1671 6.40498ZM13.1671 8.77641C14.3311 8.77641 15.4475 9.23882 16.2706 10.0619C17.0937 10.885 17.5561 12.0014 17.5561 13.1654C17.5561 14.3295 17.0937 15.4458 16.2706 16.2689C15.4475 17.092 14.3311 17.5545 13.1671 17.5545C12.003 17.5545 10.8867 17.092 10.0636 16.2689C9.24047 15.4458 8.77805 14.3295 8.77805 13.1654C8.77805 12.0014 9.24047 10.885 10.0636 10.0619C10.8867 9.23882 12.003 8.77641 13.1671 8.77641Z" fill="#634F60"/>
</svg>
